<svg version="1.1" id="Layer_1" xmlns="http://www.w3.org/2000/svg" xmlns:xlink="http://www.w3.org/1999/xlink" x="0px" y="0px"
	 width="100%" viewBox="0 0 1686 699" enable-background="new 0 0 1686 699" xml:space="preserve">
<path fill="#0471F6" opacity="1.000000" stroke="none" 
	d="
M1.000002,640.000000 
	C1.000000,447.302429 1.000000,254.604843 1.376721,61.276085 
	C2.165044,57.905281 2.420371,55.131359 3.012885,52.431435 
	C7.908312,30.124287 21.095718,14.689735 42.106846,6.017158 
	C47.223179,3.905334 52.692814,2.649446 58.000000,1.000000 
	C581.697571,1.000000 1105.395142,1.000000 1629.710205,1.367806 
	C1632.727051,2.162407 1635.182861,2.389063 1637.517212,3.046883 
	C1661.481079,9.799782 1677.161987,25.016685 1684.010376,49.042305 
	C1685.311768,53.607952 1686.018799,58.343071 1687.000000,63.000000 
	C1687.000000,254.364258 1687.000000,445.728516 1686.618164,637.732178 
	C1686.049072,651.338684 1681.349976,662.720459 1673.970703,673.144958 
	C1667.124390,682.816650 1658.257812,690.049927 1647.194580,694.289917 
	C1641.270508,696.560364 1635.073730,698.119751 1629.000000,700.000000 
	C1105.635742,700.000000 582.271484,700.000000 58.289719,699.632141 
	C31.782972,695.105896 14.203043,680.681946 5.064531,656.185974 
	C3.132135,651.006104 2.325391,645.406311 1.000002,640.000000 
M482.012665,300.074341 
	C491.582397,296.457153 501.152130,292.839996 510.721863,289.222839 
	C511.038208,289.799133 511.354584,290.375397 511.670929,290.951660 
	C497.413025,301.306030 483.155151,311.660400 469.044464,321.907867 
	C469.319000,321.925293 470.116333,322.171600 470.800659,321.990570 
	C484.719543,318.308807 498.468018,313.870117 508.940643,303.500763 
	C521.605103,290.961182 531.082214,276.088348 537.288696,259.327972 
	C542.182739,246.111923 536.659058,231.878891 523.786499,226.399796 
	C508.546387,219.912979 492.491638,217.463577 475.946411,220.556900 
	C461.714661,223.217728 451.001099,231.915497 440.935791,241.514755 
	C435.188141,246.996262 429.820862,252.876556 424.514282,259.007019 
	C424.656219,259.081818 424.798187,259.156647 424.940125,259.231476 
	C424.720032,259.011292 424.499969,258.791107 425.015137,258.964417 
	C426.791107,258.177673 428.624268,257.498169 430.333862,256.586945 
	C442.207245,250.258347 454.034241,243.842316 465.933929,237.563995 
	C467.667633,236.649277 469.709534,236.318680 471.608826,235.717804 
	C471.962189,236.271805 472.315552,236.825806 472.668884,237.379807 
	C462.810547,246.443878 452.952240,255.507950 443.093903,264.572021 
	C443.208588,264.749268 443.323273,264.926544 443.437958,265.103790 
	C459.790405,257.735657 476.142822,250.367538 492.495270,242.999405 
	C492.774841,243.478729 493.054443,243.958054 493.334045,244.437378 
	C483.046814,252.490204 472.759552,260.543030 462.472321,268.595856 
	C462.596100,268.831665 462.719910,269.067474 462.843689,269.303284 
	C479.388702,262.982574 495.933716,256.661835 512.773315,250.719177 
	C512.773315,250.719177 513.087524,251.081085 512.810364,251.696350 
	C503.140442,260.109589 493.387115,268.429626 483.839172,276.979034 
	C479.655212,280.725464 475.890564,284.940125 471.452393,289.092346 
	C471.813812,289.261353 472.175201,289.430359 473.214905,289.341522 
	C487.109467,282.434845 501.004028,275.528168 514.898560,268.621490 
	C515.099915,268.987366 515.301208,269.353210 515.502563,269.719086 
	C514.537354,270.589233 513.595459,271.487000 512.603210,272.325165 
	C503.063416,280.384155 493.479584,288.391815 484.015991,296.539154 
	C482.876709,297.519958 482.375244,299.241608 481.188171,300.424866 
	C480.953125,300.398987 480.718109,300.373077 480.483063,300.347168 
	C480.838623,300.442932 481.194153,300.538727 482.012665,300.074341 
M423.910492,218.908173 
	C424.087006,219.074081 424.263519,219.239975 424.283661,220.125427 
	C417.951447,236.430405 411.619232,252.735367 405.297455,269.013458 
	C406.011322,268.343994 407.207916,267.560883 407.953796,266.469635 
	C414.982971,256.186005 422.586853,246.224350 428.777618,235.452896 
	C442.804108,211.047943 440.188110,186.096252 428.644531,161.728317 
	C418.777679,140.899765 396.949860,135.349091 378.040680,148.624084 
	C371.857880,152.964645 366.681885,158.798813 361.295807,164.199585 
	C354.715118,170.798172 352.122925,179.053360 352.144714,188.257446 
	C352.159698,194.587784 352.035583,200.918365 352.030182,207.248886 
	C352.029144,208.431305 352.296082,209.613953 352.439331,210.796494 
	C355.061066,204.214005 356.402130,197.478516 358.362305,190.928314 
	C360.363037,184.242432 362.398193,177.447556 367.254486,172.139023 
	C367.737000,172.217331 368.219482,172.295639 368.701996,172.373962 
	C368.105591,190.207581 367.509186,208.041199 366.912781,225.874817 
	C367.282257,225.909271 367.651703,225.943726 368.021149,225.978180 
	C374.393433,206.841156 380.765686,187.704132 387.137970,168.567108 
	C387.469513,168.658905 387.801056,168.750702 388.132568,168.842484 
	C385.790344,188.314774 383.448090,207.787048 381.105865,227.259323 
	C381.323120,227.333008 381.540344,227.406693 381.757599,227.480377 
	C387.918304,212.041656 394.078979,196.602951 400.239685,181.164246 
	C400.541260,181.248657 400.842865,181.333069 401.144440,181.417480 
	C398.569336,197.338272 395.994202,213.259079 393.419067,229.179886 
	C393.940674,229.279541 394.462311,229.379196 394.983948,229.478851 
	C401.109161,218.430969 407.234344,207.383087 413.944061,196.903152 
	C414.139984,197.091354 414.335907,197.279556 414.388153,198.215271 
	C410.437714,212.425491 406.487274,226.635712 402.536835,240.845932 
	C402.823517,240.931015 403.110229,241.016083 403.396912,241.101166 
	C410.059998,233.535782 416.723114,225.970398 423.910492,218.908173 
M466.434723,359.337341 
	C466.434723,359.337341 466.718964,359.279877 466.718964,359.279877 
	C466.718964,359.279877 466.439514,359.404297 467.125885,359.535675 
	C479.500671,368.606140 491.875458,377.676605 503.863403,387.233032 
	C503.736298,387.396515 503.609222,387.559967 502.803589,387.489288 
	C494.842133,383.547394 486.880676,379.605499 478.919220,375.663605 
	C478.745605,375.951385 478.572021,376.239136 478.398407,376.526917 
	C490.818634,388.508026 503.238861,400.489166 515.112427,412.951111 
	C514.931335,413.112610 514.750305,413.274139 513.907288,413.217407 
	C498.968719,405.576843 484.030182,397.936279 469.091614,390.295715 
	C468.909546,390.686157 468.727448,391.076599 468.545380,391.467041 
	C479.842041,401.167786 491.138672,410.868530 501.959869,421.079712 
	C501.802399,421.250824 501.644928,421.421906 500.838745,421.333496 
	C488.579224,415.052856 476.319702,408.772217 464.060150,402.491577 
	C463.980164,402.732025 463.900177,402.972443 463.820190,403.212891 
	C475.358551,412.331970 486.896912,421.451050 497.951324,431.110046 
	C497.794128,431.293640 497.636963,431.477234 496.796814,431.448608 
	C478.131744,421.847290 459.466675,412.245972 440.801605,402.644653 
	C440.693329,402.876404 440.585022,403.108154 440.476746,403.339905 
	C450.331512,412.649841 460.186279,421.959808 469.275269,431.889771 
	C469.024750,432.102203 468.774261,432.314606 467.772339,432.432556 
	C443.568756,425.743469 422.652649,414.390289 410.104187,391.711670 
	C409.999237,391.723572 409.894257,391.735474 409.789307,391.747375 
	C409.870117,391.691284 409.950928,391.635193 409.983124,392.446503 
	C413.010345,408.668640 422.034668,420.290558 437.036560,427.070404 
	C456.068481,435.671539 475.869751,441.880737 496.607483,444.653229 
	C509.365570,446.358917 522.178955,446.712341 534.549377,442.130768 
	C546.932739,437.544312 552.609436,428.021820 550.239990,415.100861 
	C549.262268,409.769043 547.858398,404.254059 545.352234,399.506592 
	C530.168884,370.744873 507.307800,350.705902 476.214417,340.571136 
	C471.341949,338.982941 466.095764,338.541290 461.022369,337.569489 
	C460.887482,338.013763 460.752594,338.458069 460.617676,338.902344 
	C472.821686,347.596252 485.025665,356.290161 497.229675,364.984039 
	C497.022644,365.396271 496.815613,365.808533 496.608582,366.220764 
	C488.338348,364.043457 480.082977,361.806366 471.785339,359.739014 
	C470.116577,359.323242 468.287262,359.551941 466.434723,359.337341 
M378.568665,449.451019 
	C373.285950,463.135895 368.003235,476.820770 362.720520,490.505615 
	C362.500732,490.429993 362.280945,490.354370 362.061157,490.278748 
	C363.595551,468.840698 365.129944,447.402649 366.664337,425.964600 
	C365.971283,425.847443 365.278229,425.730286 364.585175,425.613129 
	C357.935852,449.477448 351.286530,473.341736 344.637207,497.206055 
	C344.452026,497.153198 344.266815,497.100342 344.081604,497.047516 
	C344.907196,474.929535 345.732758,452.811554 346.558319,430.693573 
	C345.615265,430.576477 344.672211,430.459351 343.729187,430.342224 
	C339.646210,450.649017 335.563232,470.955811 331.480286,491.262604 
	C331.221252,491.255157 330.962250,491.247742 330.703217,491.240295 
	C330.132324,472.290710 329.561401,453.341125 328.990479,434.391541 
	C328.760071,434.405701 328.529633,434.419830 328.299225,434.433990 
	C325.564911,452.083832 322.830597,469.733673 320.096283,487.383514 
	C319.799988,487.376709 319.503662,487.369904 319.207336,487.363129 
	C315.585876,472.310913 311.964417,457.258698 308.342926,442.206482 
	C307.916901,442.271759 307.490845,442.337036 307.064819,442.402313 
	C307.064819,456.906982 307.064819,471.411652 307.064819,485.916351 
	C306.769836,485.955292 306.474854,485.994232 306.179871,486.033173 
	C302.645782,475.419647 299.111694,464.806122 295.577606,454.192566 
	C294.472137,456.320862 294.059479,458.410828 294.194519,460.464783 
	C294.717804,468.425323 294.864258,476.465424 296.160278,484.309174 
	C299.059387,501.855438 304.868378,518.486755 318.450775,530.660889 
	C344.670013,554.161499 361.274139,547.170959 376.723358,526.172729 
	C387.752899,511.181580 394.203094,494.093994 397.952362,476.031006 
	C399.483002,468.656708 399.733032,461.016541 400.702911,453.545563 
	C400.702911,453.545563 400.626709,453.701721 400.626709,453.701721 
	C400.626709,453.701721 400.765076,453.450928 400.415283,454.077606 
	C392.591492,468.620300 384.767731,483.162964 376.943939,497.705658 
	C376.570557,497.538452 376.197174,497.371216 375.823792,497.204010 
	C377.012939,481.183319 378.202087,465.162628 378.982483,449.106598 
	C379.061188,448.927246 379.139923,448.747864 379.218658,448.568512 
	C379.229218,448.791931 379.239746,449.015320 378.568665,449.451019 
M240.146973,242.834671 
	C254.926666,257.728638 273.185150,266.661743 292.944031,273.395203 
	C269.184265,257.899292 249.675919,238.827271 239.253326,211.596100 
	C255.283493,222.440536 271.313660,233.284988 287.343811,244.129425 
	C276.371124,229.065323 263.534058,215.759460 254.809769,199.300369 
	C274.439880,209.533646 290.990509,223.808380 308.954498,236.212662 
	C301.027222,225.160065 293.099945,214.107468 285.172668,203.054886 
	C285.527740,202.746094 285.882812,202.437302 286.237885,202.128510 
	C296.673492,209.724960 307.109100,217.321411 317.544708,224.917862 
	C317.841553,224.587891 318.138397,224.257935 318.435242,223.927963 
	C313.565094,218.569275 308.912811,212.990967 303.779327,207.897705 
	C293.152069,197.353699 283.134552,185.926575 271.289886,176.940536 
	C253.107101,163.146118 237.805573,163.675522 216.418442,177.397156 
	C212.305054,180.036209 208.731216,185.277573 207.374146,190.023483 
	C205.508789,196.547043 204.897400,203.869446 205.679932,210.625916 
	C207.878937,229.612488 216.634628,246.133224 227.642365,261.385315 
	C242.669662,282.206818 263.088501,295.065338 288.379791,300.298279 
	C278.152008,292.968658 267.924225,285.639069 258.097656,277.765289 
	C258.228973,277.582153 258.360260,277.398987 259.252991,277.294952 
	C267.417267,280.145233 275.581543,282.995483 283.745819,285.845764 
	C283.005371,283.862732 281.644897,282.856506 280.291718,281.840515 
	C271.663910,275.362732 262.540833,269.432098 254.572876,262.224579 
	C248.522583,256.751740 243.942886,249.653137 239.169144,242.856461 
	C239.321777,242.715103 239.474426,242.573746 240.146973,242.834671 
M643.500000,305.002441 
	C651.665283,305.002441 659.841675,305.267059 667.992432,304.922607 
	C675.113770,304.621643 682.386292,304.411865 689.278992,302.812622 
	C714.636902,296.929199 728.970947,275.094421 723.964966,250.561462 
	C721.536804,238.661713 714.967590,229.229172 705.369934,221.607956 
	C706.524963,220.190811 707.597107,218.962311 708.574768,217.662674 
	C720.198608,202.210800 722.184814,185.253326 714.895203,167.685593 
	C708.023743,151.125397 694.777588,141.884750 676.937134,141.268967 
	C654.969666,140.510757 632.955994,141.088089 610.962280,141.112534 
	C610.689270,141.112839 610.416626,141.435181 610.196289,141.574112 
	C610.196289,195.991211 610.196289,250.367599 610.196289,305.002441 
	C621.207947,305.002441 631.854004,305.002441 643.500000,305.002441 
M793.905579,147.381500 
	C752.911011,169.277573 737.059570,218.862991 757.716614,260.584778 
	C779.505615,304.592834 833.107849,318.772186 871.826843,290.150482 
	C897.158569,271.424866 907.630310,245.321411 905.049500,214.221970 
	C900.516235,159.595627 846.258179,123.497162 793.905579,147.381500 
M1052.901489,154.603516 
	C1028.657593,137.737640 1002.669434,134.470383 975.918152,146.977585 
	C928.070190,169.348267 914.257202,233.436035 947.645447,275.354309 
	C975.173767,309.915710 1024.020020,314.885376 1057.240723,286.504700 
	C1097.273682,252.304306 1095.446777,188.478958 1052.901489,154.603516 
M1170.369141,138.156921 
	C1166.054565,138.455551 1161.674805,138.379898 1157.436768,139.117981 
	C1139.634766,142.218262 1125.312500,150.246658 1119.090332,168.391922 
	C1112.130371,188.688446 1120.473389,210.146133 1140.357910,221.823700 
	C1148.174072,226.413849 1156.976562,229.338776 1165.371460,232.924713 
	C1173.620117,236.448212 1182.034790,239.605698 1190.156738,243.395004 
	C1194.894775,245.605515 1198.695435,249.145554 1200.147095,254.594284 
	C1202.624878,263.895142 1197.997803,272.774567 1188.174438,277.035309 
	C1178.851929,281.078766 1169.083618,281.664703 1159.315796,279.433533 
	C1141.928345,275.461914 1133.465942,264.061462 1134.176270,246.349030 
	C1134.234131,244.905518 1134.183838,243.457687 1134.183838,241.503525 
	C1126.337402,241.503525 1118.735718,241.503525 1110.768433,241.503525 
	C1108.158569,257.982635 1111.617310,273.031342 1123.277466,285.611389 
	C1143.757080,307.706604 1183.237305,311.280304 1207.516113,293.283203 
	C1215.766235,287.167572 1221.678955,279.142761 1224.004395,268.988434 
	C1228.428223,249.670593 1219.112793,230.957977 1199.796143,221.151596 
	C1191.977051,217.182037 1183.472534,214.586914 1175.441528,211.003952 
	C1166.227661,206.893173 1156.360229,203.546234 1148.274902,197.770264 
	C1135.980591,188.987671 1139.147583,170.746170 1153.163086,165.056534 
	C1162.272217,161.358643 1171.678589,161.325165 1181.073975,163.997269 
	C1191.496948,166.961563 1197.183105,174.145569 1197.915527,184.971832 
	C1198.078369,187.381577 1198.312500,189.786514 1198.540771,192.516083 
	C1206.718750,191.951538 1214.255249,191.431259 1221.706543,190.916870 
	C1223.370850,168.142365 1211.610352,149.426453 1190.771484,142.151093 
	C1184.572754,139.986969 1177.807495,139.445343 1170.369141,138.156921 
M223.290405,354.490265 
	C221.088669,354.312805 218.886932,354.135345 216.685181,353.957886 
	C238.524933,340.686920 262.948608,335.785248 287.205566,330.389404 
	C287.141418,329.840240 287.077301,329.291046 287.013184,328.741852 
	C269.428314,328.741852 251.843475,328.741852 234.258606,328.741852 
	C234.210602,328.211456 234.162598,327.681061 234.114578,327.150665 
	C248.572891,318.013031 264.973389,315.357117 281.644287,312.872833 
	C269.269684,312.120728 256.902191,312.078644 244.535141,312.133667 
	C234.126129,312.179993 223.760162,312.893738 214.849350,319.029510 
	C201.559357,328.180695 188.296936,337.391357 175.361710,347.031494 
	C166.972153,353.283936 163.961472,362.173431 164.915436,372.620331 
	C165.927719,383.705933 171.115555,392.010956 180.296143,398.129822 
	C192.787048,406.455109 206.564362,411.597961 221.031815,415.169189 
	C230.939346,417.614807 240.855560,419.645966 251.089157,417.275208 
	C273.829742,412.007050 292.227692,399.077606 309.479462,384.138306 
	C309.585480,384.046448 309.457092,383.683807 309.426147,383.297424 
	C285.238129,394.020599 260.605072,402.146027 233.625275,399.056641 
	C255.218552,393.017456 273.188171,380.715881 290.620819,367.337982 
	C285.804352,368.210144 281.300598,369.781525 276.754547,371.219208 
	C257.950195,377.166016 238.960464,382.067444 218.962570,379.990265 
	C215.074173,379.586395 211.272171,378.350708 207.430313,377.498688 
	C229.907898,371.674744 250.607925,362.923065 269.694458,354.529572 
	C255.375870,354.529572 239.778946,354.529572 223.290405,354.490265 
M377.212097,373.469513 
	C380.172699,373.083374 383.312714,373.203857 386.064850,372.229126 
	C404.229553,365.795654 415.037689,352.294739 420.968567,334.560242 
	C424.220215,324.837219 424.355438,314.915985 420.408112,305.248413 
	C413.909363,289.332062 392.843567,277.597046 374.081055,279.330383 
	C349.341309,281.615906 328.597992,299.108582 322.171539,323.105255 
	C316.738220,343.393585 323.306519,357.179321 342.493683,366.140900 
	C353.245453,371.162628 364.572601,373.296387 377.212097,373.469513 
M1302.828857,241.499908 
	C1302.828857,262.580475 1302.828857,283.661041 1302.828857,304.744934 
	C1311.152466,304.744934 1318.748413,304.744934 1326.902710,304.744934 
	C1326.902710,258.110687 1326.902710,211.729935 1326.902710,164.778839 
	C1344.841064,164.778839 1362.222656,164.778839 1379.550049,164.778839 
	C1379.550049,156.605591 1379.550049,149.011200 1379.550049,141.331207 
	C1335.869019,141.331207 1292.478149,141.331207 1249.046875,141.331207 
	C1249.046875,149.273926 1249.046875,156.881073 1249.046875,165.049896 
	C1266.978638,165.049896 1284.701660,165.049896 1302.828857,165.049896 
	C1302.828857,190.574265 1302.828857,215.537079 1302.828857,241.499908 
M783.473389,511.147247 
	C768.573547,511.147247 753.673767,511.147247 738.865723,511.147247 
	C738.865723,496.561249 738.865723,482.808228 738.865723,468.404510 
	C757.719849,468.404510 776.247559,468.404510 794.753784,468.404510 
	C794.753784,462.478333 794.753784,457.212067 794.753784,451.726257 
	C770.428894,451.726257 746.362915,451.726257 722.145630,451.726257 
	C722.145630,491.514862 722.145630,531.045898 722.145630,570.517517 
	C746.547852,570.517517 770.617859,570.517517 794.848267,570.517517 
	C794.848267,564.889893 794.848267,559.597290 794.848267,553.733215 
	C776.164978,553.733215 757.616943,553.733215 738.927979,553.733215 
	C738.927979,544.930908 738.927979,536.703491 738.927979,528.120117 
	C757.777100,528.120117 776.231689,528.120117 794.685730,528.120117 
	C794.685730,522.341858 794.685730,516.932373 794.685730,511.147247 
	C791.063599,511.147247 787.763245,511.147247 783.473389,511.147247 
M891.386414,549.062073 
	C886.079163,541.294922 880.771973,533.527771 875.454163,525.745117 
	C877.095581,524.381287 878.264709,523.450378 879.389709,522.468994 
	C891.982422,511.483185 895.526245,497.447937 891.829285,481.757751 
	C888.287903,466.727417 878.399536,456.134277 863.328552,453.551788 
	C849.252380,451.139740 834.637329,451.872742 820.218140,451.219604 
	C820.218140,491.798004 820.218140,531.158447 820.218140,570.611084 
	C825.714783,570.611084 830.812500,570.611084 836.607300,570.611084 
	C836.607300,557.693542 836.607300,544.991394 836.607300,531.990479 
	C843.279663,531.990479 849.270142,531.766602 855.226501,532.119141 
	C857.154724,532.233337 859.685486,533.364929 860.762329,534.872559 
	C868.402222,545.569336 875.683350,556.521667 883.228760,567.287476 
	C884.266052,568.767517 886.070251,570.570435 887.624084,570.675476 
	C893.521545,571.073853 899.461914,570.835876 906.324219,570.835876 
	C901.145203,563.256104 896.488892,556.441345 891.386414,549.062073 
M622.825195,550.499756 
	C622.825195,557.113281 622.825195,563.726746 622.825195,570.521973 
	C628.600464,570.521973 633.809631,570.521973 639.677612,570.521973 
	C639.677612,556.998230 639.677612,543.785461 639.677612,530.130493 
	C658.739624,530.130493 677.146545,530.130493 695.775146,530.130493 
	C695.775146,524.266357 695.775146,518.862122 695.775146,512.936279 
	C676.990662,512.936279 658.427795,512.936279 639.852356,512.936279 
	C639.852356,498.170013 639.852356,483.927948 639.852356,469.059265 
	C658.708740,469.059265 677.239075,469.059265 695.662109,469.059265 
	C695.662109,463.020874 695.662109,457.621277 695.662109,452.314209 
	C671.250916,452.314209 647.184143,452.314209 622.825195,452.314209 
	C622.825195,484.921661 622.825195,517.210754 622.825195,550.499756 
M1442.371338,458.942810 
	C1443.546875,456.845276 1444.722290,454.747711 1446.177002,452.152069 
	C1443.282227,452.152069 1441.216431,452.493256 1439.305054,452.094818 
	C1429.384888,450.027161 1424.254272,454.759857 1419.802124,463.294922 
	C1411.762085,478.708313 1402.443115,493.454559 1393.363037,508.984344 
	C1392.119995,506.974182 1391.137939,505.464355 1390.232666,503.909821 
	C1380.859009,487.814545 1371.520630,471.698730 1362.091064,455.636322 
	C1361.312378,454.309662 1359.992188,452.413513 1358.833374,452.346802 
	C1352.986328,452.010040 1347.109375,452.192047 1340.591797,452.192047 
	C1341.833740,454.496307 1342.568359,455.959778 1343.391602,457.371521 
	C1356.459351,479.782410 1369.605835,502.147980 1382.522217,524.645691 
	C1383.997925,527.215820 1384.819824,530.504517 1384.882812,533.482544 
	C1385.141846,545.758362 1384.991333,558.042847 1384.991333,570.435791 
	C1390.840698,570.435791 1396.199341,570.435791 1401.848145,570.435791 
	C1401.848145,557.549133 1401.723755,545.070068 1401.947754,532.597351 
	C1401.995605,529.933411 1402.790039,526.993958 1404.118286,524.686707 
	C1416.644653,502.925537 1429.361572,481.274078 1442.371338,458.942810 
M1261.817871,501.499908 
	C1261.817871,524.442810 1261.817871,547.385681 1261.817871,570.537231 
	C1267.586548,570.537231 1272.800659,570.537231 1278.687500,570.537231 
	C1278.687500,536.537109 1278.687500,502.843536 1278.687500,468.603271 
	C1292.087036,468.603271 1304.819458,468.603271 1317.549072,468.603271 
	C1317.549072,462.783295 1317.549072,457.526337 1317.549072,452.174255 
	C1285.870605,452.174255 1254.494873,452.174255 1223.087402,452.174255 
	C1223.087402,457.796051 1223.087402,463.056519 1223.087402,468.955109 
	C1236.051392,468.955109 1248.761108,468.955109 1261.817871,468.955109 
	C1261.817871,479.895050 1261.817871,490.197449 1261.817871,501.499908 
M952.817688,521.499939 
	C952.817688,537.778137 952.817688,554.056335 952.817688,570.534424 
	C958.592529,570.534424 963.805603,570.534424 969.691833,570.534424 
	C969.691833,536.531982 969.691833,502.838959 969.691833,468.598999 
	C983.092163,468.598999 995.824524,468.598999 1008.546997,468.598999 
	C1008.546997,462.778320 1008.546997,457.521057 1008.546997,452.176636 
	C976.866211,452.176636 945.490356,452.176636 914.089905,452.176636 
	C914.089905,457.799500 914.089905,463.060486 914.089905,468.959717 
	C927.056396,468.959717 939.765869,468.959717 952.817688,468.959717 
	C952.817688,486.566223 952.817688,503.533051 952.817688,521.499939 
M1077.116089,570.111206 
	C1078.541138,570.357544 1079.965820,570.815857 1081.391235,570.818604 
	C1104.871826,570.862976 1128.352417,570.855042 1151.833008,570.836365 
	C1153.110962,570.835327 1154.388794,570.637146 1155.659058,570.531311 
	C1155.659058,564.818542 1155.659058,559.423462 1155.659058,553.619385 
	C1134.885620,553.619385 1114.460938,553.619385 1093.538818,553.619385 
	C1093.538818,519.626953 1093.538818,486.051483 1093.538818,452.235107 
	C1087.797729,452.235107 1082.561646,452.235107 1076.870605,452.235107 
	C1076.870605,491.361694 1076.870605,530.276184 1077.116089,570.111206 
M1033.810547,485.499023 
	C1033.810547,513.877197 1033.810547,542.255432 1033.810547,570.604004 
	C1039.729858,570.604004 1044.836426,570.604004 1050.063477,570.604004 
	C1050.063477,531.028076 1050.063477,491.707031 1050.063477,452.368713 
	C1044.473755,452.368713 1039.359619,452.368713 1033.810547,452.368713 
	C1033.810547,463.225586 1033.810547,473.862274 1033.810547,485.499023 
M1197.537109,464.525757 
	C1197.537109,460.566956 1197.537109,456.608185 1197.537109,452.401489 
	C1191.710938,452.401489 1186.475220,452.401489 1181.027588,452.401489 
	C1181.027588,491.876373 1181.027588,531.136414 1181.027588,570.592773 
	C1186.482178,570.592773 1191.718506,570.592773 1197.536987,570.592773 
	C1197.536987,535.393921 1197.536987,500.456146 1197.537109,464.525757 
M741.033142,364.569275 
	C733.254639,350.591431 720.430725,344.188690 706.265259,347.210358 
	C693.027405,350.034149 682.885559,362.041962 681.569336,376.450073 
	C679.405762,400.134094 700.078186,418.254791 721.875854,411.781281 
	C740.385803,406.284180 749.309814,384.940643 741.033142,364.569275 
M861.605530,403.845581 
	C858.067932,398.669006 854.530334,393.492401 850.919128,388.208008 
	C851.788086,387.442139 852.404907,386.908661 853.010742,386.362976 
	C860.093079,379.984009 861.752441,371.847992 859.443420,363.119293 
	C857.110901,354.301483 850.862793,348.695312 841.771790,347.705750 
	C834.599609,346.925049 827.274597,347.548798 819.836792,347.548798 
	C819.836792,369.385712 819.836792,391.072235 819.836792,412.786377 
	C823.165344,412.786377 826.108337,412.786377 829.597534,412.786377 
	C829.597534,405.820496 829.597534,399.078186 829.597534,392.489502 
	C837.076111,390.624512 842.704590,391.718475 846.037903,398.964478 
	C847.271179,401.645386 849.345276,403.940460 851.042847,406.406677 
	C856.319153,414.071747 857.208496,414.403351 867.369385,412.252472 
	C865.530273,409.556793 863.781494,406.993591 861.605530,403.845581 
M767.542908,357.559998 
	C767.542908,354.118103 767.542908,350.676208 767.542908,347.124817 
	C763.909302,347.124817 760.838867,347.124817 757.456970,347.124817 
	C757.456970,360.234497 757.453064,373.028534 757.461792,385.822571 
	C757.462891,387.485199 757.420227,389.158508 757.582397,390.808716 
	C758.888611,404.102112 769.024231,413.114532 782.503784,413.018188 
	C795.694031,412.923920 806.195496,403.561676 806.763550,390.131042 
	C807.367188,375.859436 806.899231,361.542480 806.899231,347.026672 
	C803.595886,347.026672 800.475708,347.026672 796.977600,347.026672 
	C796.977600,360.499969 797.084167,373.785583 796.942261,387.068573 
	C796.837646,396.858398 790.943237,403.026093 782.150269,402.977875 
	C773.249146,402.929077 767.632935,396.843903 767.559265,386.999207 
	C767.488281,377.514526 767.543274,368.028839 767.542908,357.559998 
M617.867065,349.011261 
	C624.953247,361.223663 632.143494,373.377777 639.037964,385.697449 
	C640.418884,388.165039 641.187134,391.234894 641.342285,394.075897 
	C641.682068,400.297546 641.447510,406.550568 641.447510,412.786255 
	C645.177612,412.786255 648.117371,412.786255 651.552246,412.786255 
	C651.552246,407.263428 651.787476,401.957153 651.483337,396.681946 
	C651.202881,391.818604 652.477417,387.689117 655.013367,383.542786 
	C661.511414,372.918243 667.663940,362.082062 673.921631,351.311340 
	C674.533142,350.258820 674.916199,349.073608 675.398254,347.966248 
	C667.812195,346.064301 662.953979,347.901733 659.639404,355.250732 
	C656.121277,363.050903 651.119751,370.182037 646.491882,378.072784 
	C641.512512,369.553131 636.811707,361.538269 632.139282,353.506866 
	C628.219910,346.769684 625.677002,345.841492 617.867065,349.011261 
M1515.663330,471.237457 
	C1516.151733,470.298126 1516.640137,469.358765 1517.128540,468.419434 
	C1517.424438,468.483948 1517.720337,468.548462 1518.016235,468.612976 
	C1518.016235,473.649658 1518.016235,478.686340 1518.016235,483.720703 
	C1519.918579,483.720703 1521.308960,483.720703 1522.762207,483.720703 
	C1522.762207,473.012756 1522.762207,462.596710 1522.762207,452.180664 
	C1522.281982,451.925385 1521.801758,451.670135 1521.321655,451.414856 
	C1513.438843,456.761322 1513.757935,467.430847 1507.732178,474.840820 
	C1504.711670,468.108490 1501.751221,461.703522 1498.971802,455.220947 
	C1497.834595,452.568420 1496.486816,450.988922 1493.495361,452.505737 
	C1493.495361,462.982025 1493.495361,473.381866 1493.495361,483.768799 
	C1495.115723,483.768799 1496.377808,483.768799 1498.083984,483.768799 
	C1498.083984,478.352173 1498.083984,473.155029 1498.083984,467.957855 
	C1500.881592,472.120331 1502.723511,476.502625 1504.839233,480.748383 
	C1505.477539,482.029419 1506.823608,483.703766 1507.942017,483.779907 
	C1508.964722,483.849579 1510.472900,482.195557 1511.142334,480.962097 
	C1512.722900,478.049622 1513.931763,474.935425 1515.663330,471.237457 
M1478.618774,476.366211 
	C1478.618774,469.972473 1478.618774,463.578766 1478.618774,456.785095 
	C1482.545776,456.785095 1485.643066,456.785095 1488.797363,456.785095 
	C1488.797363,454.918640 1488.797363,453.482239 1488.797363,452.117981 
	C1480.164185,452.117981 1471.782715,452.117981 1463.031494,452.117981 
	C1463.215576,453.890900 1463.358154,455.264984 1463.553101,457.143494 
	C1466.993652,457.143494 1470.056641,457.143494 1473.454346,457.143494 
	C1473.454346,466.297882 1473.454346,474.905975 1473.454346,483.997925 
	C1475.330811,483.915955 1476.831787,483.850403 1478.618774,483.772339 
	C1478.618774,481.283875 1478.618774,479.303589 1478.618774,476.366211 
M477.893066,375.515594 
	C477.693329,375.508362 477.493561,375.501129 477.293823,375.493927 
	C477.390228,375.592987 477.486603,375.692047 477.893066,375.515594 
M311.447662,382.493256 
	C311.447662,382.493256 311.481689,382.557892 311.447662,382.493256 
M441.665161,265.404022 
	C441.665161,265.404022 441.748566,265.522156 441.665161,265.404022 
z"/>
<path fill="#FFFFFF" opacity="1.000000" stroke="none" 
	d="
M1629.468628,700.000000 
	C1635.073730,698.119751 1641.270508,696.560364 1647.194580,694.289917 
	C1658.257812,690.049927 1667.124390,682.816650 1673.970703,673.144958 
	C1681.349976,662.720459 1686.049072,651.338684 1686.618164,638.185791 
	C1687.000000,658.591064 1687.000000,679.182068 1687.000000,700.000000 
	C1667.979736,700.000000 1648.958496,700.000000 1629.468628,700.000000 
z"/>
<path fill="#FFFFFF" opacity="1.000000" stroke="none" 
	d="
M1687.000000,62.531342 
	C1686.018799,58.343071 1685.311768,53.607952 1684.010376,49.042305 
	C1677.161987,25.016685 1661.481079,9.799782 1637.517212,3.046883 
	C1635.182861,2.389063 1632.727051,2.162407 1630.163818,1.367806 
	C1648.929932,1.000000 1667.859741,1.000000 1687.000000,1.000000 
	C1687.000000,21.353745 1687.000000,41.708214 1687.000000,62.531342 
z"/>
<path fill="#FFFFFF" opacity="1.000000" stroke="none" 
	d="
M1.000002,640.468628 
	C2.325391,645.406311 3.132135,651.006104 5.064531,656.185974 
	C14.203043,680.681946 31.782972,695.105896 57.836090,699.632141 
	C39.071323,700.000000 20.142643,700.000000 1.000000,700.000000 
	C1.000000,680.312927 1.000000,660.625122 1.000002,640.468628 
z"/>
<path fill="#FFFFFF" opacity="1.000000" stroke="none" 
	d="
M57.531342,1.000000 
	C52.692814,2.649446 47.223179,3.905334 42.106846,6.017158 
	C21.095718,14.689735 7.908312,30.124287 3.012885,52.431435 
	C2.420371,55.131359 2.165044,57.905281 1.376721,60.822453 
	C1.000000,41.075077 1.000000,21.150150 1.000000,1.000000 
	C19.686958,1.000000 38.374821,1.000000 57.531342,1.000000 
z"/>
<path fill="#FDFEFF" opacity="1.000000" stroke="none" 
	d="
M643.000000,305.002441 
	C631.854004,305.002441 621.207947,305.002441 610.196289,305.002441 
	C610.196289,250.367599 610.196289,195.991211 610.196289,141.574112 
	C610.416626,141.435181 610.689270,141.112839 610.962280,141.112534 
	C632.955994,141.088089 654.969666,140.510757 676.937134,141.268967 
	C694.777588,141.884750 708.023743,151.125397 714.895203,167.685593 
	C722.184814,185.253326 720.198608,202.210800 708.574768,217.662674 
	C707.597107,218.962311 706.524963,220.190811 705.369934,221.607956 
	C714.967590,229.229172 721.536804,238.661713 723.964966,250.561462 
	C728.970947,275.094421 714.636902,296.929199 689.278992,302.812622 
	C682.386292,304.411865 675.113770,304.621643 667.992432,304.922607 
	C659.841675,305.267059 651.665283,305.002441 643.000000,305.002441 
M672.252502,235.003159 
	C659.512085,235.003159 646.771667,235.003159 634.057373,235.003159 
	C634.057373,250.639999 634.057373,265.563538 634.057373,280.087250 
	C649.844604,280.087250 665.408875,280.188843 680.969177,279.985870 
	C683.521118,279.952606 686.165527,278.832306 688.579407,277.782562 
	C699.957886,272.834106 704.149963,261.046478 698.475586,249.990265 
	C693.210693,239.731903 684.158386,235.714813 672.252502,235.003159 
M648.504395,165.001373 
	C643.734192,165.001373 638.963928,165.001373 634.163696,165.001373 
	C634.163696,180.609695 634.163696,195.640732 634.163696,210.932037 
	C647.601685,210.932037 660.735168,211.370895 673.825684,210.808670 
	C686.932251,210.245773 695.265869,199.867676 694.828186,185.944244 
	C694.426514,173.162842 685.868347,165.120728 672.461487,165.012878 
	C664.809265,164.951309 657.156067,165.001495 648.504395,165.001373 
z"/>
<path fill="#FCFDFF" opacity="1.000000" stroke="none" 
	d="
M794.241089,147.218628 
	C846.258179,123.497162 900.516235,159.595627 905.049500,214.221970 
	C907.630310,245.321411 897.158569,271.424866 871.826843,290.150482 
	C833.107849,318.772186 779.505615,304.592834 757.716614,260.584778 
	C737.059570,218.862991 752.911011,169.277573 794.241089,147.218628 
M833.704590,280.370575 
	C836.783752,279.700867 839.945068,279.285950 842.929504,278.322754 
	C879.914062,266.386444 893.734436,217.603027 869.292542,185.432663 
	C848.572632,158.161163 811.703918,156.226044 788.571167,181.341980 
	C774.555176,196.559586 770.626404,214.727493 774.080200,234.706070 
	C778.975098,263.021698 805.240234,283.393646 833.704590,280.370575 
z"/>
<path fill="#FCFDFF" opacity="1.000000" stroke="none" 
	d="
M1053.189453,154.815338 
	C1095.446777,188.478958 1097.273682,252.304306 1057.240723,286.504700 
	C1024.020020,314.885376 975.173767,309.915710 947.645447,275.354309 
	C914.257202,233.436035 928.070190,169.348267 975.918152,146.977585 
	C1002.669434,134.470383 1028.657593,137.737640 1053.189453,154.815338 
M1056.354126,248.712555 
	C1063.694580,232.611130 1064.135742,216.168900 1057.996460,199.724930 
	C1046.361572,168.561508 1011.090576,154.422165 983.299133,170.162018 
	C964.388672,180.872025 954.420227,197.828995 953.630371,219.588089 
	C952.752441,243.776505 962.661926,262.788788 983.779663,274.728790 
	C1009.797791,289.439484 1041.146118,278.064941 1056.354126,248.712555 
z"/>
<path fill="#FCFDFF" opacity="1.000000" stroke="none" 
	d="
M1170.835449,138.158615 
	C1177.807495,139.445343 1184.572754,139.986969 1190.771484,142.151093 
	C1211.610352,149.426453 1223.370850,168.142365 1221.706543,190.916870 
	C1214.255249,191.431259 1206.718750,191.951538 1198.540771,192.516083 
	C1198.312500,189.786514 1198.078369,187.381577 1197.915527,184.971832 
	C1197.183105,174.145569 1191.496948,166.961563 1181.073975,163.997269 
	C1171.678589,161.325165 1162.272217,161.358643 1153.163086,165.056534 
	C1139.147583,170.746170 1135.980591,188.987671 1148.274902,197.770264 
	C1156.360229,203.546234 1166.227661,206.893173 1175.441528,211.003952 
	C1183.472534,214.586914 1191.977051,217.182037 1199.796143,221.151596 
	C1219.112793,230.957977 1228.428223,249.670593 1224.004395,268.988434 
	C1221.678955,279.142761 1215.766235,287.167572 1207.516113,293.283203 
	C1183.237305,311.280304 1143.757080,307.706604 1123.277466,285.611389 
	C1111.617310,273.031342 1108.158569,257.982635 1110.768433,241.503525 
	C1118.735718,241.503525 1126.337402,241.503525 1134.183838,241.503525 
	C1134.183838,243.457687 1134.234131,244.905518 1134.176270,246.349030 
	C1133.465942,264.061462 1141.928345,275.461914 1159.315796,279.433533 
	C1169.083618,281.664703 1178.851929,281.078766 1188.174438,277.035309 
	C1197.997803,272.774567 1202.624878,263.895142 1200.147095,254.594284 
	C1198.695435,249.145554 1194.894775,245.605515 1190.156738,243.395004 
	C1182.034790,239.605698 1173.620117,236.448212 1165.371460,232.924713 
	C1156.976562,229.338776 1148.174072,226.413849 1140.357910,221.823700 
	C1120.473389,210.146133 1112.130371,188.688446 1119.090332,168.391922 
	C1125.312500,150.246658 1139.634766,142.218262 1157.436768,139.117981 
	C1161.674805,138.379898 1166.054565,138.455551 1170.835449,138.158615 
z"/>
<path fill="#FBFDFF" opacity="1.000000" stroke="none" 
	d="
M223.736221,354.509918 
	C239.778946,354.529572 255.375870,354.529572 269.694458,354.529572 
	C250.607925,362.923065 229.907898,371.674744 207.430313,377.498688 
	C211.272171,378.350708 215.074173,379.586395 218.962570,379.990265 
	C238.960464,382.067444 257.950195,377.166016 276.754547,371.219208 
	C281.300598,369.781525 285.804352,368.210144 290.620819,367.337982 
	C273.188171,380.715881 255.218552,393.017456 233.625275,399.056641 
	C260.605072,402.146027 285.238129,394.020599 309.426147,383.297424 
	C309.457092,383.683807 309.585480,384.046448 309.479462,384.138306 
	C292.227692,399.077606 273.829742,412.007050 251.089157,417.275208 
	C240.855560,419.645966 230.939346,417.614807 221.031815,415.169189 
	C206.564362,411.597961 192.787048,406.455109 180.296143,398.129822 
	C171.115555,392.010956 165.927719,383.705933 164.915436,372.620331 
	C163.961472,362.173431 166.972153,353.283936 175.361710,347.031494 
	C188.296936,337.391357 201.559357,328.180695 214.849350,319.029510 
	C223.760162,312.893738 234.126129,312.179993 244.535141,312.133667 
	C256.902191,312.078644 269.269684,312.120728 281.644287,312.872833 
	C264.973389,315.357117 248.572891,318.013031 234.114578,327.150665 
	C234.162598,327.681061 234.210602,328.211456 234.258606,328.741852 
	C251.843475,328.741852 269.428314,328.741852 287.013184,328.741852 
	C287.077301,329.291046 287.141418,329.840240 287.205566,330.389404 
	C262.948608,335.785248 238.524933,340.686920 216.685181,353.957886 
	C218.886932,354.135345 221.088669,354.312805 223.736221,354.509918 
z"/>
<path fill="#FDFEFF" opacity="1.000000" stroke="none" 
	d="
M376.778687,373.484802 
	C364.572601,373.296387 353.245453,371.162628 342.493683,366.140900 
	C323.306519,357.179321 316.738220,343.393585 322.171539,323.105255 
	C328.597992,299.108582 349.341309,281.615906 374.081055,279.330383 
	C392.843567,277.597046 413.909363,289.332062 420.408112,305.248413 
	C424.355438,314.915985 424.220215,324.837219 420.968567,334.560242 
	C415.037689,352.294739 404.229553,365.795654 386.064850,372.229126 
	C383.312714,373.203857 380.172699,373.083374 376.778687,373.484802 
z"/>
<path fill="#FBFDFF" opacity="1.000000" stroke="none" 
	d="
M257.696442,278.309448 
	C267.924225,285.639069 278.152008,292.968658 288.379791,300.298279 
	C263.088501,295.065338 242.669662,282.206818 227.642365,261.385315 
	C216.634628,246.133224 207.878937,229.612488 205.679932,210.625916 
	C204.897400,203.869446 205.508789,196.547043 207.374146,190.023483 
	C208.731216,185.277573 212.305054,180.036209 216.418442,177.397156 
	C237.805573,163.675522 253.107101,163.146118 271.289886,176.940536 
	C283.134552,185.926575 293.152069,197.353699 303.779327,207.897705 
	C308.912811,212.990967 313.565094,218.569275 318.435242,223.927963 
	C318.138397,224.257935 317.841553,224.587891 317.544708,224.917862 
	C307.109100,217.321411 296.673492,209.724960 286.237885,202.128510 
	C285.882812,202.437302 285.527740,202.746094 285.172668,203.054886 
	C293.099945,214.107468 301.027222,225.160065 308.954498,236.212662 
	C290.990509,223.808380 274.439880,209.533646 254.809769,199.300369 
	C263.534058,215.759460 276.371124,229.065323 287.343811,244.129425 
	C271.313660,233.284988 255.283493,222.440536 239.253326,211.596100 
	C249.675919,238.827271 269.184265,257.899292 292.944031,273.395203 
	C273.185150,266.661743 254.926666,257.728638 239.705078,242.390015 
	C238.910187,241.752319 238.557190,241.559296 238.204208,241.366287 
	C238.372406,242.003494 238.540619,242.640717 238.708832,243.277924 
	C243.942886,249.653137 248.522583,256.751740 254.572876,262.224579 
	C262.540833,269.432098 271.663910,275.362732 280.291718,281.840515 
	C281.644897,282.856506 283.005371,283.862732 283.745819,285.845764 
	C275.581543,282.995483 267.417267,280.145233 258.540253,277.122833 
	C257.415924,277.111237 257.004303,277.271729 256.592712,277.432220 
	C256.960632,277.724640 257.328522,278.017029 257.696442,278.309448 
M238.072922,211.590195 
	C238.278839,211.672150 238.484756,211.754089 238.690674,211.836044 
	C238.633499,211.625961 238.576309,211.415894 238.072922,211.590195 
z"/>
<path fill="#FDFEFF" opacity="1.000000" stroke="none" 
	d="
M1302.828857,240.999908 
	C1302.828857,215.537079 1302.828857,190.574265 1302.828857,165.049896 
	C1284.701660,165.049896 1266.978638,165.049896 1249.046875,165.049896 
	C1249.046875,156.881073 1249.046875,149.273926 1249.046875,141.331207 
	C1292.478149,141.331207 1335.869019,141.331207 1379.550049,141.331207 
	C1379.550049,149.011200 1379.550049,156.605591 1379.550049,164.778839 
	C1362.222656,164.778839 1344.841064,164.778839 1326.902710,164.778839 
	C1326.902710,211.729935 1326.902710,258.110687 1326.902710,304.744934 
	C1318.748413,304.744934 1311.152466,304.744934 1302.828857,304.744934 
	C1302.828857,283.661041 1302.828857,262.580475 1302.828857,240.999908 
z"/>
<path fill="#F9FCFF" opacity="1.000000" stroke="none" 
	d="
M379.391235,449.141937 
	C378.202087,465.162628 377.012939,481.183319 375.823792,497.204010 
	C376.197174,497.371216 376.570557,497.538452 376.943939,497.705658 
	C384.767731,483.162964 392.591492,468.620300 400.549744,453.816223 
	C400.684204,453.554840 400.565704,453.497345 400.565704,453.497345 
	C399.733032,461.016541 399.483002,468.656708 397.952362,476.031006 
	C394.203094,494.093994 387.752899,511.181580 376.723358,526.172729 
	C361.274139,547.170959 344.670013,554.161499 318.450775,530.660889 
	C304.868378,518.486755 299.059387,501.855438 296.160278,484.309174 
	C294.864258,476.465424 294.717804,468.425323 294.194519,460.464783 
	C294.059479,458.410828 294.472137,456.320862 295.577606,454.192566 
	C299.111694,464.806122 302.645782,475.419647 306.179871,486.033173 
	C306.474854,485.994232 306.769836,485.955292 307.064819,485.916351 
	C307.064819,471.411652 307.064819,456.906982 307.064819,442.402313 
	C307.490845,442.337036 307.916901,442.271759 308.342926,442.206482 
	C311.964417,457.258698 315.585876,472.310913 319.207336,487.363129 
	C319.503662,487.369904 319.799988,487.376709 320.096283,487.383514 
	C322.830597,469.733673 325.564911,452.083832 328.299225,434.433990 
	C328.529633,434.419830 328.760071,434.405701 328.990479,434.391541 
	C329.561401,453.341125 330.132324,472.290710 330.703217,491.240295 
	C330.962250,491.247742 331.221252,491.255157 331.480286,491.262604 
	C335.563232,470.955811 339.646210,450.649017 343.729187,430.342224 
	C344.672211,430.459351 345.615265,430.576477 346.558319,430.693573 
	C345.732758,452.811554 344.907196,474.929535 344.081604,497.047516 
	C344.266815,497.100342 344.452026,497.153198 344.637207,497.206055 
	C351.286530,473.341736 357.935852,449.477448 364.585175,425.613129 
	C365.278229,425.730286 365.971283,425.847443 366.664337,425.964600 
	C365.129944,447.402649 363.595551,468.840698 362.061157,490.278748 
	C362.280945,490.354370 362.500732,490.429993 362.720520,490.505615 
	C368.003235,476.820770 373.285950,463.135895 378.934540,449.305878 
	C379.300415,449.160736 379.391205,449.141937 379.391235,449.141937 
z"/>
<path fill="#FAFCFF" opacity="1.000000" stroke="none" 
	d="
M470.041046,431.269775 
	C460.186279,421.959808 450.331512,412.649841 440.476746,403.339905 
	C440.585022,403.108154 440.693329,402.876404 440.801605,402.644653 
	C459.466675,412.245972 478.131744,421.847290 497.427246,431.692535 
	C498.183533,431.481049 498.309387,431.025604 498.435242,430.570160 
	C486.896912,421.451050 475.358551,412.331970 463.820190,403.212891 
	C463.900177,402.972443 463.980164,402.732025 464.060150,402.491577 
	C476.319702,408.772217 488.579224,415.052856 501.476135,421.642761 
	C502.546326,421.839600 502.979065,421.727203 503.411835,421.614777 
	C503.086334,421.266266 502.760834,420.917786 502.435333,420.569275 
	C491.138672,410.868530 479.842041,401.167786 468.545380,391.467041 
	C468.727448,391.076599 468.909546,390.686157 469.091614,390.295715 
	C484.030182,397.936279 498.968719,405.576843 514.524414,413.553284 
	C515.592041,413.813690 516.042603,413.738159 516.493103,413.662659 
	C516.215088,413.265198 515.937073,412.867737 515.659058,412.470276 
	C503.238861,400.489166 490.818634,388.508026 478.398407,376.526917 
	C478.572021,376.239136 478.745605,375.951385 478.919220,375.663605 
	C486.880676,379.605499 494.842133,383.547394 503.477600,387.775909 
	C504.525940,387.974060 504.900269,387.885559 505.274628,387.797089 
	C504.933167,387.447083 504.591705,387.097076 504.250244,386.747070 
	C491.875458,377.676605 479.500671,368.606140 466.821533,359.471466 
	C466.517151,359.407257 466.531952,359.483521 466.531952,359.483521 
	C468.287262,359.551941 470.116577,359.323242 471.785339,359.739014 
	C480.082977,361.806366 488.338348,364.043457 496.608582,366.220764 
	C496.815613,365.808533 497.022644,365.396271 497.229675,364.984039 
	C485.025665,356.290161 472.821686,347.596252 460.617676,338.902344 
	C460.752594,338.458069 460.887482,338.013763 461.022369,337.569489 
	C466.095764,338.541290 471.341949,338.982941 476.214417,340.571136 
	C507.307800,350.705902 530.168884,370.744873 545.352234,399.506592 
	C547.858398,404.254059 549.262268,409.769043 550.239990,415.100861 
	C552.609436,428.021820 546.932739,437.544312 534.549377,442.130768 
	C522.178955,446.712341 509.365570,446.358917 496.607483,444.653229 
	C475.869751,441.880737 456.068481,435.671539 437.036560,427.070404 
	C422.034668,420.290558 413.010345,408.668640 409.952667,392.045929 
	C409.922211,391.645355 409.812408,391.579559 409.812408,391.579559 
	C422.652649,414.390289 443.568756,425.743469 468.446198,432.651367 
	C469.778473,432.773376 470.436859,432.676636 471.095276,432.579895 
	C470.743866,432.143158 470.392456,431.706451 470.041046,431.269775 
M506.247803,388.098328 
	C506.188416,388.512146 506.129028,388.925964 506.069641,389.339783 
	C506.341980,389.039825 506.614319,388.739868 506.247803,388.098328 
M504.439148,422.239960 
	C504.328064,422.321136 504.216949,422.402313 504.105835,422.483459 
	C504.192169,422.590424 504.269012,422.771027 504.367493,422.783722 
	C504.466675,422.796509 504.587372,422.642395 504.439148,422.239960 
M517.829834,414.524841 
	C517.639099,414.450928 517.448425,414.376984 517.257690,414.303070 
	C517.311401,414.494202 517.365112,414.685303 517.829834,414.524841 
z"/>
<path fill="#FAFCFF" opacity="1.000000" stroke="none" 
	d="
M413.359558,196.335205 
	C407.234344,207.383087 401.109161,218.430969 394.983948,229.478851 
	C394.462311,229.379196 393.940674,229.279541 393.419067,229.179886 
	C395.994202,213.259079 398.569336,197.338272 401.144440,181.417480 
	C400.842865,181.333069 400.541260,181.248657 400.239685,181.164246 
	C394.078979,196.602951 387.918304,212.041656 381.757599,227.480377 
	C381.540344,227.406693 381.323120,227.333008 381.105865,227.259323 
	C383.448090,207.787048 385.790344,188.314774 388.132568,168.842484 
	C387.801056,168.750702 387.469513,168.658905 387.137970,168.567108 
	C380.765686,187.704132 374.393433,206.841156 368.021149,225.978180 
	C367.651703,225.943726 367.282257,225.909271 366.912781,225.874817 
	C367.509186,208.041199 368.105591,190.207581 368.701996,172.373962 
	C368.219482,172.295639 367.737000,172.217331 367.254486,172.139023 
	C362.398193,177.447556 360.363037,184.242432 358.362305,190.928314 
	C356.402130,197.478516 355.061066,204.214005 352.439331,210.796494 
	C352.296082,209.613953 352.029144,208.431305 352.030182,207.248886 
	C352.035583,200.918365 352.159698,194.587784 352.144714,188.257446 
	C352.122925,179.053360 354.715118,170.798172 361.295807,164.199585 
	C366.681885,158.798813 371.857880,152.964645 378.040680,148.624084 
	C396.949860,135.349091 418.777679,140.899765 428.644531,161.728317 
	C440.188110,186.096252 442.804108,211.047943 428.777618,235.452896 
	C422.586853,246.224350 414.982971,256.186005 407.953796,266.469635 
	C407.207916,267.560883 406.011322,268.343994 405.297455,269.013458 
	C411.619232,252.735367 417.951447,236.430405 424.553772,219.516083 
	C424.867889,218.339859 424.911896,217.772995 425.012909,216.471039 
	C424.144226,217.503799 423.765228,217.954391 423.386200,218.404999 
	C416.723114,225.970398 410.059998,233.535782 403.396912,241.101166 
	C403.110229,241.016083 402.823517,240.931015 402.536835,240.845932 
	C406.487274,226.635712 410.437714,212.425491 414.634155,197.532089 
	C414.872253,196.235458 414.864349,195.621994 414.856445,195.008545 
	C414.357483,195.450760 413.858521,195.892990 413.359558,196.335205 
z"/>
<path fill="#F8FBFF" opacity="1.000000" stroke="none" 
	d="
M783.968140,511.147247 
	C787.763245,511.147247 791.063599,511.147247 794.685730,511.147247 
	C794.685730,516.932373 794.685730,522.341858 794.685730,528.120117 
	C776.231689,528.120117 757.777100,528.120117 738.927979,528.120117 
	C738.927979,536.703491 738.927979,544.930908 738.927979,553.733215 
	C757.616943,553.733215 776.164978,553.733215 794.848267,553.733215 
	C794.848267,559.597290 794.848267,564.889893 794.848267,570.517517 
	C770.617859,570.517517 746.547852,570.517517 722.145630,570.517517 
	C722.145630,531.045898 722.145630,491.514862 722.145630,451.726257 
	C746.362915,451.726257 770.428894,451.726257 794.753784,451.726257 
	C794.753784,457.212067 794.753784,462.478333 794.753784,468.404510 
	C776.247559,468.404510 757.719849,468.404510 738.865723,468.404510 
	C738.865723,482.808228 738.865723,496.561249 738.865723,511.147247 
	C753.673767,511.147247 768.573547,511.147247 783.968140,511.147247 
z"/>
<path fill="#FBFDFF" opacity="1.000000" stroke="none" 
	d="
M891.609497,549.344360 
	C896.488892,556.441345 901.145203,563.256104 906.324219,570.835876 
	C899.461914,570.835876 893.521545,571.073853 887.624084,570.675476 
	C886.070251,570.570435 884.266052,568.767517 883.228760,567.287476 
	C875.683350,556.521667 868.402222,545.569336 860.762329,534.872559 
	C859.685486,533.364929 857.154724,532.233337 855.226501,532.119141 
	C849.270142,531.766602 843.279663,531.990479 836.607300,531.990479 
	C836.607300,544.991394 836.607300,557.693542 836.607300,570.611084 
	C830.812500,570.611084 825.714783,570.611084 820.218140,570.611084 
	C820.218140,531.158447 820.218140,491.798004 820.218140,451.219604 
	C834.637329,451.872742 849.252380,451.139740 863.328552,453.551788 
	C878.399536,456.134277 888.287903,466.727417 891.829285,481.757751 
	C895.526245,497.447937 891.982422,511.483185 879.389709,522.468994 
	C878.264709,523.450378 877.095581,524.381287 875.454163,525.745117 
	C880.771973,533.527771 886.079163,541.294922 891.609497,549.344360 
M836.519775,474.549103 
	C836.519775,487.937439 836.519775,501.325806 836.519775,514.853821 
	C843.441284,514.853821 849.780212,515.434509 855.972717,514.729553 
	C867.831482,513.379456 875.702698,504.524963 876.114380,493.083038 
	C876.547302,481.046906 869.666260,471.719604 857.536560,469.753967 
	C850.804565,468.663025 843.750610,469.558197 836.697266,469.558197 
	C836.636780,470.925507 836.578552,472.241974 836.519775,474.549103 
z"/>
<path fill="#F9FCFF" opacity="1.000000" stroke="none" 
	d="
M424.282318,258.577301 
	C429.820862,252.876556 435.188141,246.996262 440.935791,241.514755 
	C451.001099,231.915497 461.714661,223.217728 475.946411,220.556900 
	C492.491638,217.463577 508.546387,219.912979 523.786499,226.399796 
	C536.659058,231.878891 542.182739,246.111923 537.288696,259.327972 
	C531.082214,276.088348 521.605103,290.961182 508.940643,303.500763 
	C498.468018,313.870117 484.719543,318.308807 470.800659,321.990570 
	C470.116333,322.171600 469.319000,321.925293 469.044464,321.907867 
	C483.155151,311.660400 497.413025,301.306030 511.670929,290.951660 
	C511.354584,290.375397 511.038208,289.799133 510.721863,289.222839 
	C501.152130,292.839996 491.582397,296.457153 481.760681,300.307343 
	C481.508698,300.540344 481.578125,300.619904 481.578125,300.619934 
	C482.375244,299.241608 482.876709,297.519958 484.015991,296.539154 
	C493.479584,288.391815 503.063416,280.384155 512.603210,272.325165 
	C513.595459,271.487000 514.537354,270.589233 515.502563,269.719086 
	C515.301208,269.353210 515.099915,268.987366 514.898560,268.621490 
	C501.004028,275.528168 487.109467,282.434845 472.731049,289.301056 
	C472.247192,289.260590 471.935516,288.942169 471.935516,288.942169 
	C475.890564,284.940125 479.655212,280.725464 483.839172,276.979034 
	C493.387115,268.429626 503.140442,260.109589 513.237183,251.312408 
	C513.704285,250.696075 513.744507,250.463715 513.784729,250.231339 
	C513.349426,250.267929 512.914062,250.304520 512.478760,250.341095 
	C495.933716,256.661835 479.388702,262.982574 462.843689,269.303284 
	C462.719910,269.067474 462.596100,268.831665 462.472321,268.595856 
	C472.759552,260.543030 483.046814,252.490204 493.334045,244.437378 
	C493.054443,243.958054 492.774841,243.478729 492.495270,242.999405 
	C476.142822,250.367538 459.790405,257.735657 443.437958,265.103790 
	C443.323273,264.926544 443.208588,264.749268 443.093903,264.572021 
	C452.952240,255.507950 462.810547,246.443878 472.668884,237.379807 
	C472.315552,236.825806 471.962189,236.271805 471.608826,235.717804 
	C469.709534,236.318680 467.667633,236.649277 465.933929,237.563995 
	C454.034241,243.842316 442.207245,250.258347 430.333862,256.586945 
	C428.624268,257.498169 426.791107,258.177673 424.682312,258.791107 
	C424.349487,258.617798 424.282318,258.577301 424.282318,258.577301 
M494.997711,243.276382 
	C495.149811,242.934967 495.301910,242.593536 495.454010,242.252106 
	C494.884827,242.413605 494.315643,242.575089 492.910431,243.035355 
	C492.832214,243.389313 492.753998,243.743271 492.675781,244.097229 
	C493.288696,243.927475 493.901642,243.757721 494.997711,243.276382 
M516.078308,268.480011 
	C516.273682,268.548187 516.469055,268.616364 516.664429,268.684540 
	C516.603455,268.492798 516.542419,268.301056 516.078308,268.480011 
z"/>
<path fill="#FCFDFF" opacity="1.000000" stroke="none" 
	d="
M622.825195,549.999756 
	C622.825195,517.210754 622.825195,484.921661 622.825195,452.314209 
	C647.184143,452.314209 671.250916,452.314209 695.662109,452.314209 
	C695.662109,457.621277 695.662109,463.020874 695.662109,469.059265 
	C677.239075,469.059265 658.708740,469.059265 639.852356,469.059265 
	C639.852356,483.927948 639.852356,498.170013 639.852356,512.936279 
	C658.427795,512.936279 676.990662,512.936279 695.775146,512.936279 
	C695.775146,518.862122 695.775146,524.266357 695.775146,530.130493 
	C677.146545,530.130493 658.739624,530.130493 639.677612,530.130493 
	C639.677612,543.785461 639.677612,556.998230 639.677612,570.521973 
	C633.809631,570.521973 628.600464,570.521973 622.825195,570.521973 
	C622.825195,563.726746 622.825195,557.113281 622.825195,549.999756 
z"/>
<path fill="#FAFCFF" opacity="1.000000" stroke="none" 
	d="
M1442.197388,459.266846 
	C1429.361572,481.274078 1416.644653,502.925537 1404.118286,524.686707 
	C1402.790039,526.993958 1401.995605,529.933411 1401.947754,532.597351 
	C1401.723755,545.070068 1401.848145,557.549133 1401.848145,570.435791 
	C1396.199341,570.435791 1390.840698,570.435791 1384.991333,570.435791 
	C1384.991333,558.042847 1385.141846,545.758362 1384.882812,533.482544 
	C1384.819824,530.504517 1383.997925,527.215820 1382.522217,524.645691 
	C1369.605835,502.147980 1356.459351,479.782410 1343.391602,457.371521 
	C1342.568359,455.959778 1341.833740,454.496307 1340.591797,452.192047 
	C1347.109375,452.192047 1352.986328,452.010040 1358.833374,452.346802 
	C1359.992188,452.413513 1361.312378,454.309662 1362.091064,455.636322 
	C1371.520630,471.698730 1380.859009,487.814545 1390.232666,503.909821 
	C1391.137939,505.464355 1392.119995,506.974182 1393.363037,508.984344 
	C1402.443115,493.454559 1411.762085,478.708313 1419.802124,463.294922 
	C1424.254272,454.759857 1429.384888,450.027161 1439.305054,452.094818 
	C1441.216431,452.493256 1443.282227,452.152069 1446.177002,452.152069 
	C1444.722290,454.747711 1443.546875,456.845276 1442.197388,459.266846 
z"/>
<path fill="#F9FCFF" opacity="1.000000" stroke="none" 
	d="
M1261.817871,500.999878 
	C1261.817871,490.197449 1261.817871,479.895050 1261.817871,468.955109 
	C1248.761108,468.955109 1236.051392,468.955109 1223.087402,468.955109 
	C1223.087402,463.056519 1223.087402,457.796051 1223.087402,452.174255 
	C1254.494873,452.174255 1285.870605,452.174255 1317.549072,452.174255 
	C1317.549072,457.526337 1317.549072,462.783295 1317.549072,468.603271 
	C1304.819458,468.603271 1292.087036,468.603271 1278.687500,468.603271 
	C1278.687500,502.843536 1278.687500,536.537109 1278.687500,570.537231 
	C1272.800659,570.537231 1267.586548,570.537231 1261.817871,570.537231 
	C1261.817871,547.385681 1261.817871,524.442810 1261.817871,500.999878 
z"/>
<path fill="#F9FCFF" opacity="1.000000" stroke="none" 
	d="
M952.817688,520.999878 
	C952.817688,503.533051 952.817688,486.566223 952.817688,468.959717 
	C939.765869,468.959717 927.056396,468.959717 914.089905,468.959717 
	C914.089905,463.060486 914.089905,457.799500 914.089905,452.176636 
	C945.490356,452.176636 976.866211,452.176636 1008.546997,452.176636 
	C1008.546997,457.521057 1008.546997,462.778320 1008.546997,468.598999 
	C995.824524,468.598999 983.092163,468.598999 969.691833,468.598999 
	C969.691833,502.838959 969.691833,536.531982 969.691833,570.534424 
	C963.805603,570.534424 958.592529,570.534424 952.817688,570.534424 
	C952.817688,554.056335 952.817688,537.778137 952.817688,520.999878 
z"/>
<path fill="#F9FCFF" opacity="1.000000" stroke="none" 
	d="
M1076.993408,569.650940 
	C1076.870605,530.276184 1076.870605,491.361694 1076.870605,452.235107 
	C1082.561646,452.235107 1087.797729,452.235107 1093.538818,452.235107 
	C1093.538818,486.051483 1093.538818,519.626953 1093.538818,553.619385 
	C1114.460938,553.619385 1134.885620,553.619385 1155.659058,553.619385 
	C1155.659058,559.423462 1155.659058,564.818542 1155.659058,570.531311 
	C1154.388794,570.637146 1153.110962,570.835327 1151.833008,570.836365 
	C1128.352417,570.855042 1104.871826,570.862976 1081.391235,570.818604 
	C1079.965820,570.815857 1078.541138,570.357544 1076.993408,569.650940 
z"/>
<path fill="#F7FAFF" opacity="1.000000" stroke="none" 
	d="
M1033.810547,484.998993 
	C1033.810547,473.862274 1033.810547,463.225586 1033.810547,452.368713 
	C1039.359619,452.368713 1044.473755,452.368713 1050.063477,452.368713 
	C1050.063477,491.707031 1050.063477,531.028076 1050.063477,570.604004 
	C1044.836426,570.604004 1039.729858,570.604004 1033.810547,570.604004 
	C1033.810547,542.255432 1033.810547,513.877197 1033.810547,484.998993 
z"/>
<path fill="#F7FAFF" opacity="1.000000" stroke="none" 
	d="
M1197.537109,465.022064 
	C1197.536987,500.456146 1197.536987,535.393921 1197.536987,570.592773 
	C1191.718506,570.592773 1186.482178,570.592773 1181.027588,570.592773 
	C1181.027588,531.136414 1181.027588,491.876373 1181.027588,452.401489 
	C1186.475220,452.401489 1191.710938,452.401489 1197.537109,452.401489 
	C1197.537109,456.608185 1197.537109,460.566956 1197.537109,465.022064 
z"/>
<path fill="#F8FBFF" opacity="1.000000" stroke="none" 
	d="
M741.176575,364.923035 
	C749.309814,384.940643 740.385803,406.284180 721.875854,411.781281 
	C700.078186,418.254791 679.405762,400.134094 681.569336,376.450073 
	C682.885559,362.041962 693.027405,350.034149 706.265259,347.210358 
	C720.430725,344.188690 733.254639,350.591431 741.176575,364.923035 
M733.090332,371.795166 
	C730.080444,363.986359 724.899414,358.486572 716.406128,357.015472 
	C706.940063,355.375977 698.412170,360.063263 693.914795,368.981415 
	C689.372009,377.989807 691.194641,389.500824 698.299194,396.671722 
	C706.992859,405.446564 720.123718,405.107056 728.312988,395.859039 
	C734.337280,389.055695 735.611694,381.195953 733.090332,371.795166 
z"/>
<path fill="#F4F9FF" opacity="1.000000" stroke="none" 
	d="
M861.819153,404.138000 
	C863.781494,406.993591 865.530273,409.556793 867.369385,412.252472 
	C857.208496,414.403351 856.319153,414.071747 851.042847,406.406677 
	C849.345276,403.940460 847.271179,401.645386 846.037903,398.964478 
	C842.704590,391.718475 837.076111,390.624512 829.597534,392.489502 
	C829.597534,399.078186 829.597534,405.820496 829.597534,412.786377 
	C826.108337,412.786377 823.165344,412.786377 819.836792,412.786377 
	C819.836792,391.072235 819.836792,369.385712 819.836792,347.548798 
	C827.274597,347.548798 834.599609,346.925049 841.771790,347.705750 
	C850.862793,348.695312 857.110901,354.301483 859.443420,363.119293 
	C861.752441,371.847992 860.093079,379.984009 853.010742,386.362976 
	C852.404907,386.908661 851.788086,387.442139 850.919128,388.208008 
	C854.530334,393.492401 858.067932,398.669006 861.819153,404.138000 
M842.837646,358.239014 
	C838.638489,357.775513 834.439270,357.312042 829.887695,356.809631 
	C829.887695,365.702393 829.887695,373.685913 829.887695,381.629272 
	C841.250793,382.745453 847.471619,380.227875 849.684570,373.807892 
	C851.732422,367.867157 849.618408,362.651978 842.837646,358.239014 
z"/>
<path fill="#F5FAFF" opacity="1.000000" stroke="none" 
	d="
M767.542847,358.051819 
	C767.543274,368.028839 767.488281,377.514526 767.559265,386.999207 
	C767.632935,396.843903 773.249146,402.929077 782.150269,402.977875 
	C790.943237,403.026093 796.837646,396.858398 796.942261,387.068573 
	C797.084167,373.785583 796.977600,360.499969 796.977600,347.026672 
	C800.475708,347.026672 803.595886,347.026672 806.899231,347.026672 
	C806.899231,361.542480 807.367188,375.859436 806.763550,390.131042 
	C806.195496,403.561676 795.694031,412.923920 782.503784,413.018188 
	C769.024231,413.114532 758.888611,404.102112 757.582397,390.808716 
	C757.420227,389.158508 757.462891,387.485199 757.461792,385.822571 
	C757.453064,373.028534 757.456970,360.234497 757.456970,347.124817 
	C760.838867,347.124817 763.909302,347.124817 767.542908,347.124817 
	C767.542908,350.676208 767.542908,354.118103 767.542847,358.051819 
z"/>
<path fill="#F3F8FF" opacity="1.000000" stroke="none" 
	d="
M617.791565,348.667664 
	C625.677002,345.841492 628.219910,346.769684 632.139282,353.506866 
	C636.811707,361.538269 641.512512,369.553131 646.491882,378.072784 
	C651.119751,370.182037 656.121277,363.050903 659.639404,355.250732 
	C662.953979,347.901733 667.812195,346.064301 675.398254,347.966248 
	C674.916199,349.073608 674.533142,350.258820 673.921631,351.311340 
	C667.663940,362.082062 661.511414,372.918243 655.013367,383.542786 
	C652.477417,387.689117 651.202881,391.818604 651.483337,396.681946 
	C651.787476,401.957153 651.552246,407.263428 651.552246,412.786255 
	C648.117371,412.786255 645.177612,412.786255 641.447510,412.786255 
	C641.447510,406.550568 641.682068,400.297546 641.342285,394.075897 
	C641.187134,391.234894 640.418884,388.165039 639.037964,385.697449 
	C632.143494,373.377777 624.953247,361.223663 617.791565,348.667664 
z"/>
<path fill="#F5FAFF" opacity="1.000000" stroke="none" 
	d="
M1515.477173,471.570129 
	C1513.931763,474.935425 1512.722900,478.049622 1511.142334,480.962097 
	C1510.472900,482.195557 1508.964722,483.849579 1507.942017,483.779907 
	C1506.823608,483.703766 1505.477539,482.029419 1504.839233,480.748383 
	C1502.723511,476.502625 1500.881592,472.120331 1498.083984,467.957855 
	C1498.083984,473.155029 1498.083984,478.352173 1498.083984,483.768799 
	C1496.377808,483.768799 1495.115723,483.768799 1493.495361,483.768799 
	C1493.495361,473.381866 1493.495361,462.982025 1493.495361,452.505737 
	C1496.486816,450.988922 1497.834595,452.568420 1498.971802,455.220947 
	C1501.751221,461.703522 1504.711670,468.108490 1507.732178,474.840820 
	C1513.757935,467.430847 1513.438843,456.761322 1521.321655,451.414856 
	C1521.801758,451.670135 1522.281982,451.925385 1522.762207,452.180664 
	C1522.762207,462.596710 1522.762207,473.012756 1522.762207,483.720703 
	C1521.308960,483.720703 1519.918579,483.720703 1518.016235,483.720703 
	C1518.016235,478.686340 1518.016235,473.649658 1518.016235,468.612976 
	C1517.720337,468.548462 1517.424438,468.483948 1517.128540,468.419434 
	C1516.640137,469.358765 1516.151733,470.298126 1515.477173,471.570129 
z"/>
<path fill="#E2EFFE" opacity="1.000000" stroke="none" 
	d="
M1478.618774,476.844788 
	C1478.618774,479.303589 1478.618774,481.283875 1478.618774,483.772339 
	C1476.831787,483.850403 1475.330811,483.915955 1473.454346,483.997925 
	C1473.454346,474.905975 1473.454346,466.297882 1473.454346,457.143494 
	C1470.056641,457.143494 1466.993652,457.143494 1463.553101,457.143494 
	C1463.358154,455.264984 1463.215576,453.890900 1463.031494,452.117981 
	C1471.782715,452.117981 1480.164185,452.117981 1488.797363,452.117981 
	C1488.797363,453.482239 1488.797363,454.918640 1488.797363,456.785095 
	C1485.643066,456.785095 1482.545776,456.785095 1478.618774,456.785095 
	C1478.618774,463.578766 1478.618774,469.972473 1478.618774,476.844788 
z"/>
<path fill="#F9FCFF" opacity="1.000000" stroke="none" 
	d="
M379.275330,449.199738 
	C379.239746,449.015320 379.229218,448.791931 379.218658,448.568512 
	C379.139923,448.747864 379.061188,448.927246 379.186829,449.124268 
	C379.391205,449.141937 379.300415,449.160736 379.275330,449.199738 
z"/>
<path fill="#F9FCFF" opacity="1.000000" stroke="none" 
	d="
M481.529205,300.587402 
	C481.194153,300.538727 480.838623,300.442932 480.483063,300.347168 
	C480.718109,300.373077 480.953125,300.398987 481.383148,300.522400 
	C481.578125,300.619904 481.508698,300.540344 481.529205,300.587402 
z"/>
<path fill="#FAFCFF" opacity="1.000000" stroke="none" 
	d="
M477.738037,375.653351 
	C477.486603,375.692047 477.390228,375.592987 477.293823,375.493896 
	C477.493561,375.501129 477.693329,375.508362 477.738037,375.653351 
z"/>
<path fill="#F9FCFF" opacity="1.000000" stroke="none" 
	d="
M400.724640,453.502869 
	C400.765076,453.450928 400.626709,453.701721 400.626709,453.701721 
	C400.626709,453.701721 400.702911,453.545563 400.634308,453.521454 
	C400.565704,453.497345 400.684204,453.554840 400.724640,453.502869 
z"/>
<path fill="#FBFDFF" opacity="1.000000" stroke="none" 
	d="
M311.464661,382.525574 
	C311.481689,382.557892 311.447662,382.493256 311.464661,382.525574 
z"/>
<path fill="#F9FCFF" opacity="1.000000" stroke="none" 
	d="
M424.314697,258.594360 
	C424.499969,258.791107 424.720032,259.011292 424.940125,259.231476 
	C424.798187,259.156647 424.656219,259.081818 424.398315,258.792175 
	C424.282318,258.577301 424.349487,258.617798 424.314697,258.594360 
z"/>
<path fill="#F9FCFF" opacity="1.000000" stroke="none" 
	d="
M441.706848,265.463074 
	C441.748566,265.522156 441.665161,265.404022 441.706848,265.463074 
z"/>
<path fill="#F9FCFF" opacity="1.000000" stroke="none" 
	d="
M472.391907,289.429993 
	C472.175201,289.430359 471.813812,289.261353 471.693970,289.017273 
	C471.935516,288.942169 472.247192,289.260590 472.391907,289.429993 
z"/>
<path fill="#FAFCFF" opacity="1.000000" stroke="none" 
	d="
M466.478333,359.405762 
	C466.439514,359.404297 466.718964,359.279877 466.718964,359.279877 
	C466.718964,359.279877 466.434723,359.337341 466.483337,359.410431 
	C466.531952,359.483521 466.517151,359.407257 466.478333,359.405762 
z"/>
<path fill="#FAFCFF" opacity="1.000000" stroke="none" 
	d="
M409.976990,391.612244 
	C409.950928,391.635193 409.870117,391.691284 409.789307,391.747375 
	C409.894257,391.735474 409.999237,391.723572 409.958313,391.645630 
	C409.812408,391.579559 409.922211,391.645355 409.976990,391.612244 
z"/>
<path fill="#0571F6" opacity="1.000000" stroke="none" 
	d="
M672.719604,235.008606 
	C684.158386,235.714813 693.210693,239.731903 698.475586,249.990265 
	C704.149963,261.046478 699.957886,272.834106 688.579407,277.782562 
	C686.165527,278.832306 683.521118,279.952606 680.969177,279.985870 
	C665.408875,280.188843 649.844604,280.087250 634.057373,280.087250 
	C634.057373,265.563538 634.057373,250.639999 634.057373,235.003159 
	C646.771667,235.003159 659.512085,235.003159 672.719604,235.008606 
z"/>
<path fill="#0571F6" opacity="1.000000" stroke="none" 
	d="
M649.003906,165.001373 
	C657.156067,165.001495 664.809265,164.951309 672.461487,165.012878 
	C685.868347,165.120728 694.426514,173.162842 694.828186,185.944244 
	C695.265869,199.867676 686.932251,210.245773 673.825684,210.808670 
	C660.735168,211.370895 647.601685,210.932037 634.163696,210.932037 
	C634.163696,195.640732 634.163696,180.609695 634.163696,165.001373 
	C638.963928,165.001373 643.734192,165.001373 649.003906,165.001373 
z"/>
<path fill="#0571F6" opacity="1.000000" stroke="none" 
	d="
M833.268433,280.430542 
	C805.240234,283.393646 778.975098,263.021698 774.080200,234.706070 
	C770.626404,214.727493 774.555176,196.559586 788.571167,181.341980 
	C811.703918,156.226044 848.572632,158.161163 869.292542,185.432663 
	C893.734436,217.603027 879.914062,266.386444 842.929504,278.322754 
	C839.945068,279.285950 836.783752,279.700867 833.268433,280.430542 
z"/>
<path fill="#0571F6" opacity="1.000000" stroke="none" 
	d="
M1056.193359,249.051849 
	C1041.146118,278.064941 1009.797791,289.439484 983.779663,274.728790 
	C962.661926,262.788788 952.752441,243.776505 953.630371,219.588089 
	C954.420227,197.828995 964.388672,180.872025 983.299133,170.162018 
	C1011.090576,154.422165 1046.361572,168.561508 1057.996460,199.724930 
	C1064.135742,216.168900 1063.694580,232.611130 1056.193359,249.051849 
z"/>
<path fill="#0471F6" opacity="1.000000" stroke="none" 
	d="
M238.938995,243.067200 
	C238.540619,242.640717 238.372406,242.003494 238.204208,241.366287 
	C238.557190,241.559296 238.910187,241.752319 239.445114,242.188873 
	C239.474426,242.573746 239.321777,242.715103 238.938995,243.067200 
z"/>
<path fill="#0471F6" opacity="1.000000" stroke="none" 
	d="
M238.296021,211.398010 
	C238.576309,211.415894 238.633499,211.625961 238.690674,211.836044 
	C238.484756,211.754089 238.278839,211.672150 238.296021,211.398010 
z"/>
<path fill="#0471F6" opacity="1.000000" stroke="none" 
	d="
M257.897034,278.037354 
	C257.328522,278.017029 256.960632,277.724640 256.592712,277.432220 
	C257.004303,277.271729 257.415924,277.111237 258.159546,277.083252 
	C258.360260,277.398987 258.228973,277.582153 257.897034,278.037354 
z"/>
<path fill="#0471F6" opacity="1.000000" stroke="none" 
	d="
M506.567261,388.269104 
	C506.614319,388.739868 506.341980,389.039825 506.069641,389.339783 
	C506.129028,388.925964 506.188416,388.512146 506.567261,388.269104 
z"/>
<path fill="#0471F6" opacity="1.000000" stroke="none" 
	d="
M469.658142,431.579773 
	C470.392456,431.706451 470.743866,432.143158 471.095276,432.579895 
	C470.436859,432.676636 469.778473,432.773376 468.821899,432.698578 
	C468.774261,432.314606 469.024750,432.102203 469.658142,431.579773 
z"/>
<path fill="#0471F6" opacity="1.000000" stroke="none" 
	d="
M504.056824,386.990051 
	C504.591705,387.097076 504.933167,387.447083 505.274628,387.797089 
	C504.900269,387.885559 504.525940,387.974060 503.816864,387.892975 
	C503.609222,387.559967 503.736298,387.396515 504.056824,386.990051 
z"/>
<path fill="#0471F6" opacity="1.000000" stroke="none" 
	d="
M498.193298,430.840088 
	C498.309387,431.025604 498.183533,431.481049 497.768738,431.798645 
	C497.636963,431.477234 497.794128,431.293640 498.193298,430.840088 
z"/>
<path fill="#0471F6" opacity="1.000000" stroke="none" 
	d="
M504.568878,422.400696 
	C504.587372,422.642395 504.466675,422.796509 504.367493,422.783722 
	C504.269012,422.771027 504.192169,422.590424 504.105835,422.483459 
	C504.216949,422.402313 504.328064,422.321136 504.568878,422.400696 
z"/>
<path fill="#0471F6" opacity="1.000000" stroke="none" 
	d="
M502.197601,420.824493 
	C502.760834,420.917786 503.086334,421.266266 503.411835,421.614777 
	C502.979065,421.727203 502.546326,421.839600 501.800507,421.772491 
	C501.644928,421.421906 501.802399,421.250824 502.197601,420.824493 
z"/>
<path fill="#0471F6" opacity="1.000000" stroke="none" 
	d="
M517.624390,414.700623 
	C517.365112,414.685303 517.311401,414.494202 517.257690,414.303040 
	C517.448425,414.376984 517.639099,414.450928 517.624390,414.700623 
z"/>
<path fill="#0471F6" opacity="1.000000" stroke="none" 
	d="
M515.385742,412.710693 
	C515.937073,412.867737 516.215088,413.265198 516.493103,413.662659 
	C516.042603,413.738159 515.592041,413.813690 514.855347,413.662445 
	C514.750305,413.274139 514.931335,413.112610 515.385742,412.710693 
z"/>
<path fill="#0471F6" opacity="1.000000" stroke="none" 
	d="
M413.651794,196.619171 
	C413.858521,195.892990 414.357483,195.450760 414.856445,195.008545 
	C414.864349,195.621994 414.872253,196.235458 414.705994,197.158340 
	C414.335907,197.279556 414.139984,197.091354 413.651794,196.619171 
z"/>
<path fill="#0471F6" opacity="1.000000" stroke="none" 
	d="
M423.648346,218.656586 
	C423.765228,217.954391 424.144226,217.503799 425.012909,216.471039 
	C424.911896,217.772995 424.867889,218.339859 424.631958,219.156311 
	C424.263519,219.239975 424.087006,219.074081 423.648346,218.656586 
z"/>
<path fill="#0571F6" opacity="1.000000" stroke="none" 
	d="
M836.520020,474.053772 
	C836.578552,472.241974 836.636780,470.925507 836.697266,469.558197 
	C843.750610,469.558197 850.804565,468.663025 857.536560,469.753967 
	C869.666260,471.719604 876.547302,481.046906 876.114380,493.083038 
	C875.702698,504.524963 867.831482,513.379456 855.972717,514.729553 
	C849.780212,515.434509 843.441284,514.853821 836.519775,514.853821 
	C836.519775,501.325806 836.519775,487.937439 836.520020,474.053772 
z"/>
<path fill="#0471F6" opacity="1.000000" stroke="none" 
	d="
M493.746460,242.736572 
	C494.315643,242.575089 494.884827,242.413605 495.454010,242.252106 
	C495.301910,242.593536 495.149811,242.934967 494.564758,243.218719 
	C494.003387,243.019592 493.874939,242.878098 493.746460,242.736572 
z"/>
<path fill="#0471F6" opacity="1.000000" stroke="none" 
	d="
M494.323181,243.374512 
	C493.901642,243.757721 493.288696,243.927475 492.675781,244.097229 
	C492.753998,243.743271 492.832214,243.389313 493.328430,242.885971 
	C493.874939,242.878098 494.003387,243.019592 494.323181,243.374512 
z"/>
<path fill="#0471F6" opacity="1.000000" stroke="none" 
	d="
M512.626038,250.530151 
	C512.914062,250.304520 513.349426,250.267929 513.784729,250.231339 
	C513.744507,250.463715 513.704285,250.696075 513.375793,251.004761 
	C513.087524,251.081085 512.773315,250.719177 512.626038,250.530151 
z"/>
<path fill="#0471F6" opacity="1.000000" stroke="none" 
	d="
M516.279907,268.294678 
	C516.542419,268.301056 516.603455,268.492798 516.664429,268.684540 
	C516.469055,268.616364 516.273682,268.548187 516.279907,268.294678 
z"/>
<path fill="#0672F6" opacity="1.000000" stroke="none" 
	d="
M733.215881,372.190216 
	C735.611694,381.195953 734.337280,389.055695 728.312988,395.859039 
	C720.123718,405.107056 706.992859,405.446564 698.299194,396.671722 
	C691.194641,389.500824 689.372009,377.989807 693.914795,368.981415 
	C698.412170,360.063263 706.940063,355.375977 716.406128,357.015472 
	C724.899414,358.486572 730.080444,363.986359 733.215881,372.190216 
z"/>
<path fill="#0E77F6" opacity="1.000000" stroke="none" 
	d="
M843.182983,358.429810 
	C849.618408,362.651978 851.732422,367.867157 849.684570,373.807892 
	C847.471619,380.227875 841.250793,382.745453 829.887695,381.629272 
	C829.887695,373.685913 829.887695,365.702393 829.887695,356.809631 
	C834.439270,357.312042 838.638489,357.775513 843.182983,358.429810 
z"/>
</svg>